<?xml version="1.0" encoding="UTF-8"?> <svg xmlns="http://www.w3.org/2000/svg" width="168.938" height="116.071" viewBox="0 0 168.938 116.071"><g id="Group_264" data-name="Group 264" transform="translate(0 0)"><path id="Path_3" data-name="Path 3" d="M146.622,360.947c.248,1.42.483,2.78.73,4.2-1.222.22-2.419.433-3.659.654.128.763.248,1.489.376,2.214q.817,4.7,1.64,9.4a1.213,1.213,0,0,0,1.824,1.018,2.857,2.857,0,0,1,2.924.375,2.619,2.619,0,0,1,.939,2.8,2.885,2.885,0,0,1-2.4,2.057c-1.045.124-2.09.291-3.143.386a6.561,6.561,0,0,1-3.564-.41,3.178,3.178,0,0,1-1.751-2.032c-.343-1.218-.587-2.467-.815-3.714-.635-3.559-1.242-7.122-1.862-10.685-.02-.118-.062-.235-.1-.379-1,.173-1.966.339-3,.517-.248-1.4-.487-2.778-.739-4.2l3.03-.543c-.128-.763-.248-1.5-.376-2.236-.12-.688-.259-1.373-.367-2.063a4.037,4.037,0,0,1,1.6-3.909,10.943,10.943,0,0,1,4.489-2.048c1.173-.284,2.371-.479,3.548-.761a10.309,10.309,0,0,0,3.644-1.515,3.482,3.482,0,0,0,1.623-3.319c-.062-.748-.058-1.5-.086-2.341-.108.122-.166.16-.186.213a6.157,6.157,0,0,1-5.069,4.153,9.134,9.134,0,0,1-10.167-4.663,16.876,16.876,0,0,1-1.751-11.122,8.867,8.867,0,0,1,8.669-7.439,6.643,6.643,0,0,1,5.634,2.571.8.8,0,0,0,.334.268c-.182-1.076-.368-2.154-.558-3.277l5.625-.981c.137.781.272,1.52.4,2.259,1.1,6.338,2.223,12.673,3.292,19.018a8.77,8.77,0,0,1-3.606,8.894,16.692,16.692,0,0,1-6.656,2.891c-.664.151-1.346.233-2,.43a5.537,5.537,0,0,0-1.5.679,1.979,1.979,0,0,0-.826,2.17c.069.353.131.708.2,1.1l3.668-.63m-6.765-24.959a10.086,10.086,0,0,0,1.784,6.032,3.978,3.978,0,0,0,3.287,1.708,4.583,4.583,0,0,0,4.87-3.954,9.707,9.707,0,0,0,.1-2.165,9.058,9.058,0,0,0-1.8-5.256,4.571,4.571,0,0,0-3.449-1.864,4.215,4.215,0,0,0-4.2,2.44,7.117,7.117,0,0,0-.587,3.057m8.9,43.478a1.594,1.594,0,0,0-1.7,1.48,1.5,1.5,0,0,0,1.512,1.511,1.6,1.6,0,0,0,1.7-1.484,1.494,1.494,0,0,0-1.512-1.506" transform="translate(-63.626 -277.609)" fill="#ffdd92"></path><path id="Path_4" data-name="Path 4" d="M165.91,331.268l-3.015.517c-.305-1.75-.6-3.479-.914-5.26,1.007-.182,1.988-.359,3.026-.543-.367-2.134-.728-4.242-1.1-6.379,1.979-.346,3.894-.685,5.877-1.032.372,2.117.739,4.211,1.12,6.385,2.149-.377,4.277-.746,6.455-1.127-.376-2.172-.746-4.3-1.125-6.485,1.964-.342,3.9-.683,5.888-1.029.379,2.167.75,4.293,1.133,6.5.779-.155,1.536-.255,2.265-.464A2.762,2.762,0,1,1,186.6,327.7c-.784.06-1.563.222-2.393.346.022.193.033.337.058.486q.916,5.281,1.837,10.561c.033.191.082.382.133.57a.924.924,0,0,0,.97.765c.8-.055,1.6-.18,2.4-.284.133-.016.266-.058.447-.1.259,1.484.511,2.935.775,4.448-.819.171-1.6.342-2.391.492a16.692,16.692,0,0,1-4.268.388,3.449,3.449,0,0,1-3.332-2.52,38.145,38.145,0,0,1-.828-3.969c-.556-3.106-1.087-6.214-1.627-9.323-.022-.135-.055-.273-.1-.464-2.145.373-4.275.745-6.446,1.125.024.182.038.328.064.479q.913,5.258,1.831,10.518a4.9,4.9,0,0,0,.128.568c.164.561.445.839,1.018.81.788-.038,1.569-.175,2.355-.277a4.6,4.6,0,0,0,.454-.1c.257,1.493.509,2.953.777,4.493-1.437.257-2.813.523-4.2.748a8.849,8.849,0,0,1-3.077,0,3.234,3.234,0,0,1-2.694-2.343c-.379-1.336-.613-2.718-.859-4.087-.56-3.108-1.087-6.217-1.627-9.325-.022-.135-.06-.266-.1-.442m20.518-7.792a1.578,1.578,0,0,0-1.62,1.56,1.515,1.515,0,0,0,1.583,1.442,1.611,1.611,0,0,0,1.629-1.566,1.511,1.511,0,0,0-1.592-1.435" transform="translate(-29.252 -287.142)" fill="#ffdd92"></path><path id="Path_5" data-name="Path 5" d="M165.676,335.653c-.148-.852-.3-1.675-.443-2.5l-.1-.075a1.124,1.124,0,0,1-.066.182,7.042,7.042,0,0,1-5.381,4.067,8.469,8.469,0,0,1-9.16-3.528,16.517,16.517,0,0,1-2.853-7.6,14.093,14.093,0,0,1,.091-4.961,8.849,8.849,0,0,1,5.558-6.973,8.129,8.129,0,0,1,6.034-.149,7.759,7.759,0,0,1,2.468,1.622c.066.062.137.12.3.262-.162-.932-.3-1.748-.443-2.567q-.521-3.032-1.054-6.063a3.074,3.074,0,0,0-.124-.486,2.57,2.57,0,0,1,.644-2.851,2.749,2.749,0,0,1,3.081-.659,2.7,2.7,0,0,1,1.789,2.365c.228,1.673.534,3.335.821,5q2.052,11.821,4.111,23.635c.044.226.077.4-.241.448-1.589.268-3.179.553-4.768.83a1.961,1.961,0,0,1-.261,0m-2.482-8.91a12.632,12.632,0,0,0-1.355-5.362,4.4,4.4,0,0,0-4.99-2.642,4.143,4.143,0,0,0-3.759,3,10.149,10.149,0,0,0,1.348,8.723c1.848,2.86,5.025,2.447,6.891.965,1.459-1.16,1.822-2.8,1.864-4.681m-.051-19.3a1.6,1.6,0,0,0,1.649-1.54,1.547,1.547,0,0,0-1.612-1.469,1.613,1.613,0,0,0-1.607,1.549,1.509,1.509,0,0,0,1.569,1.46" transform="translate(-46.833 -303.166)" fill="#ffdd92"></path><path id="Path_6" data-name="Path 6" d="M123.08,349.737c.164.958.325,1.919.491,2.878q.4,2.29.8,4.579a6.622,6.622,0,0,0,.159.69,2.6,2.6,0,0,1-.717,2.729,2.76,2.76,0,0,1-3.013.663,2.658,2.658,0,0,1-1.813-2.252c-.4-2.465-.823-4.927-1.251-7.39q-1.79-10.336-3.593-20.671c-.018-.091-.018-.186-.029-.315l5.2-.91.54,2.966c.12-.233.188-.348.241-.468a7.16,7.16,0,0,1,6.041-4.289c3.923-.526,7.022,1.393,8.83,5.034a19.08,19.08,0,0,1,1.755,11.377,8.6,8.6,0,0,1-2.586,5.271,8.046,8.046,0,0,1-4.735,2.09,11.551,11.551,0,0,1-2.74-.038,6.641,6.641,0,0,1-3.588-1.946M121.688,339a13.481,13.481,0,0,0,.927,4.466,4.541,4.541,0,0,0,4.007,3.137,4,4,0,0,0,4.443-2.842,9.547,9.547,0,0,0-.923-7.794,4.422,4.422,0,0,0-8.1.854c-.179.71-.235,1.451-.35,2.179m.071,21.214a1.612,1.612,0,0,0,1.68-1.511,1.538,1.538,0,0,0-1.585-1.5,1.613,1.613,0,0,0-1.634,1.52,1.509,1.509,0,0,0,1.538,1.487" transform="translate(-87.341 -273.07)" fill="#ffdd92"></path><path id="Path_7" data-name="Path 7" d="M115.815,353.027a10.659,10.659,0,0,1,.246-3.534,6.578,6.578,0,0,1,3.624-4.521,15.319,15.319,0,0,1,10.351-1.373,5.669,5.669,0,0,1,4.542,4.979q1.056,6.237,2.183,12.46a9.122,9.122,0,0,0,.706,2.043,1.614,1.614,0,0,0,.677.65c.48.277.558.362.518,1.032-1.127.2-2.262.4-3.4.6-.863.153-1.733.286-2.592.455a.333.333,0,0,1-.447-.235c-.294-.717-.6-1.433-.914-2.2-.115.158-.228.306-.336.464a9.138,9.138,0,0,1-7.526,4.087,6.167,6.167,0,0,1-5.275-2.114,7,7,0,0,1-1.558-3.949,6.608,6.608,0,0,1,4.281-7.277c1.968-.8,4.02-1.409,6.03-2.1.25-.089.5-.173.746-.277a1.955,1.955,0,0,0,.562-3.377,2.411,2.411,0,0,0-1.465-.641,7.738,7.738,0,0,0-2.9.288,3,3,0,0,0-2.391,3.164c-.007.355-.108.468-.454.524-1.649.271-3.292.57-4.936.861a1.927,1.927,0,0,1-.279,0m13.984,2.139c-.733.4-1.381.808-2.072,1.123s-1.439.517-2.141.814a12.787,12.787,0,0,0-1.864.925,2.886,2.886,0,0,0,1.87,5.263,5.554,5.554,0,0,0,2.756-1.109,4.144,4.144,0,0,0,1.948-3.634c-.062-1.136-.325-2.256-.5-3.381" transform="translate(-85.338 -254.354)" fill="#ffdd92"></path><path id="Path_8" data-name="Path 8" d="M174.813,333.01c-5.142.9-10.238,1.79-15.332,2.682.611,3.131,2.477,5.012,5.572,4.672a5.464,5.464,0,0,0,3.431-1.544,1.888,1.888,0,0,0,.62-1.435,2.566,2.566,0,0,1,1.631-2.474,2.743,2.743,0,0,1,3.181.5,2.572,2.572,0,0,1,.673,2.88,6.646,6.646,0,0,0-.162.816,6.327,6.327,0,0,1-3.5,4.444,14.725,14.725,0,0,1-4.919,1.531,13.623,13.623,0,0,1-4.658-.031,8.57,8.57,0,0,1-5.975-4.189,16.463,16.463,0,0,1-2.315-10.323c.52-4.883,3.365-7.945,8.168-8.981a12.582,12.582,0,0,1,5.018-.155,8.843,8.843,0,0,1,5.813,3.761,17.533,17.533,0,0,1,2.754,7.843m-6.763-2.769c-.529-2.578-2.566-4.435-5.395-3.947-2.783.479-4,2.769-3.67,5.531l9.065-1.584m3.841,8.655a1.608,1.608,0,0,0,1.658-1.533,1.538,1.538,0,0,0-1.6-1.473,1.6,1.6,0,0,0-1.612,1.54,1.5,1.5,0,0,0,1.558,1.466" transform="translate(-40.195 -281.163)" fill="#ffdd92"></path><path id="Path_9" data-name="Path 9" d="M140.783,324.511c-2.577.455-5.127.9-7.675,1.347s-5.1.89-7.688,1.34c.452,1.606.952,3.124,2.435,4a4.736,4.736,0,0,0,1.786.632,5.577,5.577,0,0,0,4.815-1.491,1.941,1.941,0,0,0,.64-1.473,2.577,2.577,0,0,1,1.64-2.467,2.749,2.749,0,0,1,3.181.517,2.554,2.554,0,0,1,.657,2.88,4.107,4.107,0,0,0-.122.612,6.269,6.269,0,0,1-3.582,4.664,15.836,15.836,0,0,1-6.754,1.677,10.8,10.8,0,0,1-4-.519,8.343,8.343,0,0,1-4.507-3.5,16.321,16.321,0,0,1-2.53-10.92c.576-4.768,3.455-7.774,8.155-8.761a12.412,12.412,0,0,1,5.428-.06,9,9,0,0,1,5.638,4.027,18.06,18.06,0,0,1,2.479,7.49m-6.683-2.782c-.538-1.788-1.372-3.261-3.205-3.8a4.533,4.533,0,0,0-4.748,1.138,5.226,5.226,0,0,0-1.213,4.266c3.075-.537,6.085-1.063,9.167-1.6m3.816,8.67a1.613,1.613,0,0,0,1.625-1.529,1.54,1.54,0,0,0-1.6-1.484,1.616,1.616,0,0,0-1.625,1.533,1.529,1.529,0,0,0,1.6,1.48" transform="translate(-81.464 -291.522)" fill="#ffdd92"></path><path id="Path_10" data-name="Path 10" d="M146.714,347.851l-3.163.561c-.768.135-1.536.257-2.3.408a.394.394,0,0,1-.52-.266c-.283-.708-.58-1.411-.89-2.159-.168.226-.334.446-.494.668a9.144,9.144,0,0,1-7.967,3.871,6.07,6.07,0,0,1-6.1-5.158,7.327,7.327,0,0,1,.646-5.2,6.482,6.482,0,0,1,3.234-2.855c1.7-.692,3.455-1.242,5.189-1.855.629-.222,1.271-.417,1.886-.672a1.706,1.706,0,0,0,1.242-1.7,2.241,2.241,0,0,0-1.443-2.07,1.872,1.872,0,0,0-.649-.149c-1.08.055-2.163.1-3.236.231a2.468,2.468,0,0,0-1.51.914,1.217,1.217,0,0,0-.35,1.089,2.8,2.8,0,0,1-3,3.062,2.7,2.7,0,0,1-2.623-2.92c.013-.583-.086-1.176-.018-1.75a4.992,4.992,0,0,1,3.039-3.832,16.185,16.185,0,0,1,4.68-1.478,13.993,13.993,0,0,1,6.3.038,5.7,5.7,0,0,1,4.427,4.892c.784,4.566,1.6,9.127,2.406,13.689a5.271,5.271,0,0,0,.279,1.007c.084.213.215.506.392.566.536.182.476.61.551,1.069m-8.407-9.8a12.007,12.007,0,0,1-3.768,1.912,12.714,12.714,0,0,0-2.364,1.127,2.89,2.89,0,0,0-.912,3.7,2.606,2.606,0,0,0,3.079,1.484,5.95,5.95,0,0,0,2.907-1.38,3.989,3.989,0,0,0,1.572-3.366c-.084-1.134-.328-2.254-.514-3.477M127.5,332.341a1.6,1.6,0,0,0-1.607,1.542,1.525,1.525,0,0,0,1.6,1.469,1.623,1.623,0,0,0,1.612-1.544,1.531,1.531,0,0,0-1.609-1.467" transform="translate(-74.594 -275.036)" fill="#ffdd92"></path><path id="Path_11" data-name="Path 11" d="M145.148,310.2a10.47,10.47,0,0,1,10.1,6.585,14.9,14.9,0,0,1,1.032,8.648,9.471,9.471,0,0,1-3.369,5.866,12.725,12.725,0,0,1-12.219,2.387,9.682,9.682,0,0,1-6.076-5.393,14.811,14.811,0,0,1-1.364-8.843,10.226,10.226,0,0,1,6.331-8.093,13.754,13.754,0,0,1,5.565-1.156m-5.983,10.62a11.967,11.967,0,0,0,1.654,6.228,4.381,4.381,0,0,0,2.935,2.046,6.186,6.186,0,0,0,4.312-.739,3.953,3.953,0,0,0,1.9-2.307,10.346,10.346,0,0,0-1.242-8.668,4.211,4.211,0,0,0-3.666-2.07,8.225,8.225,0,0,0-2.183.262,4.431,4.431,0,0,0-3.389,3.35,18.636,18.636,0,0,0-.321,1.9" transform="translate(-64.335 -294.594)" fill="#ffdd92"></path><path id="Path_12" data-name="Path 12" d="M163.7,350.491c.031,4.493-1.078,7.4-3.7,9.629a12.308,12.308,0,0,1-6.532,2.749,12.163,12.163,0,0,1-5.848-.552,10.448,10.448,0,0,1-6.371-6.658,15.21,15.21,0,0,1-.9-6.665,10.1,10.1,0,0,1,5.72-8.573,12.751,12.751,0,0,1,10.479-.759,9.821,9.821,0,0,1,5.432,4.839,14.607,14.607,0,0,1,1.722,5.99m-17.357-.473a13.481,13.481,0,0,0,.835,4.056,9.054,9.054,0,0,0,1.091,2.01,4.567,4.567,0,0,0,4.507,1.777c2.369-.273,4.162-1.489,4.624-3.947a10.543,10.543,0,0,0-1.461-7.787A5.3,5.3,0,0,0,154.5,344.7a4.874,4.874,0,0,0-3.7-.6,4.787,4.787,0,0,0-4.261,4.093c-.111.6-.135,1.218-.2,1.826" transform="translate(-55.579 -259.652)" fill="#ffdd92"></path><path id="Path_13" data-name="Path 13" d="M149.7,329.38c1.047-1.91,2.789-2.323,4.613-2.5a8.611,8.611,0,0,1,6.123,1.6,6.864,6.864,0,0,1,2.807,4.455c.879,4.945,1.727,9.9,2.588,14.847.013.082.022.164.044.32-1.946.339-3.883.679-5.871,1.027-.126-.694-.246-1.347-.359-2-.677-3.907-1.346-7.812-2.037-11.716a3.312,3.312,0,0,0-2.537-2.949,3.75,3.75,0,0,0-2.754.359,2.669,2.669,0,0,0-1.372,2.522,28.849,28.849,0,0,0,.361,3.7c.542,3.6,1.129,7.195,1.7,10.794.022.151.038.3.062.5-1.751.308-3.484.61-5.266.923-.157-.89-.31-1.753-.46-2.614q-2.1-12.067-4.195-24.132c-.071-.4-.177-.79-.266-1.185a2.835,2.835,0,0,1,5.534-1.225c.421,2.236.781,4.482,1.171,6.725.027.149.06.295.115.559m-2.439-6.7a1.524,1.524,0,0,0-1.587-1.484,1.6,1.6,0,0,0-1.618,1.529,1.5,1.5,0,0,0,1.543,1.48,1.6,1.6,0,0,0,1.662-1.524" transform="translate(-52.519 -282.724)" fill="#ffdd92"></path><path id="Path_14" data-name="Path 14" d="M118.878,341.976c-1.749.306-3.471.61-5.244.918-.077-.439-.153-.832-.221-1.225q-2.195-12.626-4.387-25.254c-.084-.479-.208-.952-.312-1.433a2.84,2.84,0,0,1,5.565-1.138c.246,1.347.458,2.7.688,4.044.173,1.005.35,2.006.529,3.022.058-.018.117-.018.128-.04a4.209,4.209,0,0,1,2.984-2.085,8.838,8.838,0,0,1,8.073,1.657,6.694,6.694,0,0,1,2.4,4.151q1.288,7.341,2.555,14.687c.024.135.04.273.064.457-1.955.344-3.88.679-5.866,1.027-.137-.772-.272-1.524-.4-2.272q-.983-5.654-1.964-11.308a3.485,3.485,0,0,0-2.034-2.913,3.7,3.7,0,0,0-3.38.242,2.738,2.738,0,0,0-1.262,2.121,10.454,10.454,0,0,0,.21,3.246q.93,5.874,1.855,11.75c.016.1.011.213.018.346m-7.351-29.133a1.594,1.594,0,0,0-1.647,1.542,1.536,1.536,0,0,0,1.572,1.464A1.622,1.622,0,0,0,113.1,314.3a1.507,1.507,0,0,0-1.569-1.455" transform="translate(-93.983 -292.923)" fill="#ffdd92"></path><path id="Path_15" data-name="Path 15" d="M156.913,339.3c1.421-.248,2.763-.486,4.1-.719.66-.115,1.324-.2,1.975-.353.365-.082.527.009.693.35q3.6,7.418,7.239,14.823c.069.144.146.286.277.535.046-.226.075-.326.086-.428q.827-8.316,1.642-16.633c.027-.253.077-.4.363-.446,1.908-.322,3.814-.659,5.72-.987a1.049,1.049,0,0,1,.173.007c-.115.739-.221,1.464-.336,2.19-1.109,7.017-2.2,14.039-3.338,21.052-.228,1.415-.611,2.807-.941,4.206a8.041,8.041,0,0,1-.352.985,5.258,5.258,0,0,1-3.969,3.481c-1.1.248-2.214.417-3.32.628a3.337,3.337,0,0,0-.476.142,2.84,2.84,0,0,1-3.387-1.094,2.563,2.563,0,0,1,.011-2.886,2.929,2.929,0,0,1,2.543-1.338,7.263,7.263,0,0,0,2.1-.421,1.8,1.8,0,0,0,.649-2.369q-2.66-4.815-5.33-9.633l-5.877-10.623c-.073-.133-.142-.266-.246-.468m8.545,27.781a1.588,1.588,0,0,0,1.636-1.549,1.528,1.528,0,0,0-1.612-1.458,1.589,1.589,0,0,0-1.592,1.555,1.5,1.5,0,0,0,1.567,1.451" transform="translate(-35.402 -263.84)" fill="#ffdd92"></path><path id="Path_16" data-name="Path 16" d="M124.375,335.623c-1.837.324-3.646.637-5.452.961-.279.051-.328-.126-.4-.311a2.7,2.7,0,0,0-2-1.9,6.739,6.739,0,0,0-4.817.872,1.66,1.66,0,0,0-.821,1.344,1.392,1.392,0,0,0,1.069,1.668,15.432,15.432,0,0,0,2.707.422c1.9.146,3.819.153,5.713.373a11.038,11.038,0,0,1,3.119.863,5.327,5.327,0,0,1,3.185,4.757,6.926,6.926,0,0,1-3.6,6.98,14.814,14.814,0,0,1-5.91,1.946,16.336,16.336,0,0,1-4.91.018,6.445,6.445,0,0,1-5.153-3.734,1.7,1.7,0,0,0-.159-.244,2.521,2.521,0,0,1-.04-2.986,2.73,2.73,0,0,1,2.924-1.258,2.563,2.563,0,0,1,2.194,1.935,2.528,2.528,0,0,0,2.315,1.983,8.381,8.381,0,0,0,5.607-1.52,2.2,2.2,0,0,0,.452-.433,1.473,1.473,0,0,0-.686-2.545,13.858,13.858,0,0,0-2.794-.424c-1.651-.126-3.309-.153-4.963-.269a9.769,9.769,0,0,1-3.511-.872,5.468,5.468,0,0,1-3.239-4.994,7.052,7.052,0,0,1,4.115-7.111,14.366,14.366,0,0,1,5.465-1.422,12.11,12.11,0,0,1,4.68.331,7.072,7.072,0,0,1,4.905,5.4.815.815,0,0,1,0,.173m-15.112,13.97a1.593,1.593,0,0,0,1.649-1.535,1.52,1.52,0,0,0-1.561-1.469,1.606,1.606,0,0,0-1.651,1.542,1.5,1.5,0,0,0,1.563,1.462" transform="translate(-98.174 -270.906)" fill="#ffdd92"></path><path id="Path_17" data-name="Path 17" d="M112.608,351.778c-.117-.688-.252-1.327-.332-1.972a24.446,24.446,0,0,1-.29-3.075,4.948,4.948,0,0,1,3.4-4.8,16.717,16.717,0,0,1,4.23-.927c.985-.131.994-.113,1.173.892.2,1.143.4,2.283.6,3.426a2.962,2.962,0,0,1,.022.315c-.666.127-1.322.244-1.972.377a4.045,4.045,0,0,0-.64.184,1.1,1.1,0,0,0-.795,1.2c.126,1.1.308,2.2.471,3.352.837-.147,1.6-.288,2.366-.406a6.567,6.567,0,0,1,1.4-.153,2.681,2.681,0,0,1,2.63,2.662,2.828,2.828,0,0,1-2.561,2.78c-.841.109-1.676.264-2.515.4-.106.018-.21.051-.354.089.927,5.338,1.853,10.654,2.789,16.043-1.964.346-3.9.686-5.888,1.034-.936-5.369-1.862-10.7-2.8-16.08-.919.169-1.8.3-2.661.5a2.772,2.772,0,0,1-3.42-2.827,2.867,2.867,0,0,1,2.508-2.574c.868-.111,1.724-.284,2.639-.437m9.39,2.636a1.606,1.606,0,0,0,1.656-1.535,1.543,1.543,0,0,0-1.609-1.471,1.612,1.612,0,0,0-1.612,1.542A1.513,1.513,0,0,0,122,354.414" transform="translate(-95.424 -257.125)" fill="#ffdd92"></path><path id="Path_18" data-name="Path 18" d="M143.783,346.147c-1.136,1.129-2.249,2.239-3.312,3.3-.5-.512-1-1.114-1.592-1.613a4.579,4.579,0,0,0-6.705,1.136,5.674,5.674,0,0,0-.7,2.432,14.1,14.1,0,0,0,1.341,7,3.87,3.87,0,0,0,3.529,2.485,4.226,4.226,0,0,0,3.823-1.739,3.446,3.446,0,0,0,.509-1.125,2.928,2.928,0,0,1,3.294-2.137,2.7,2.7,0,0,1,2.287,3.006,4.041,4.041,0,0,1-.483,1.231c-.21.408-.5.768-.746,1.156a8.485,8.485,0,0,1-3.4,3.2,12.24,12.24,0,0,1-9.036,1.012,8.158,8.158,0,0,1-4.319-3,14.136,14.136,0,0,1-2.65-6.7,16.55,16.55,0,0,1,.027-5.961c.868-4.153,3.475-6.618,7.531-7.614a12.972,12.972,0,0,1,4.091-.45,5.963,5.963,0,0,1,2.539.759,15.012,15.012,0,0,1,3.971,3.621m-.283,10.96a1.6,1.6,0,0,0-1.645,1.546,1.532,1.532,0,0,0,1.574,1.46,1.628,1.628,0,0,0,1.647-1.553,1.518,1.518,0,0,0-1.576-1.453" transform="translate(-73.688 -256.156)" fill="#ffdd92"></path><path id="Path_19" data-name="Path 19" d="M105.054,320.92c-.221-1.276-.432-2.5-.644-3.721-.146-.839-.286-1.68-.443-2.516-.053-.273,0-.395.3-.446,1.72-.286,3.431-.588,5.144-.9.308-.058.412.033.465.337.321,1.928.66,3.851,1,5.777.02.122.049.244.089.435l3.655-.628c.243,1.4.483,2.767.733,4.2-1.229.217-2.422.433-3.661.654.164.958.319,1.877.48,2.8q.78,4.516,1.563,9.036a1.2,1.2,0,0,0,1.941.905,2.806,2.806,0,0,1,4.235,2.4,2.855,2.855,0,0,1-2.608,2.7c-1.078.118-2.152.284-3.23.393a7.155,7.155,0,0,1-3.619-.311,3.173,3.173,0,0,1-1.895-2.057,36.507,36.507,0,0,1-.823-3.712c-.642-3.574-1.249-7.151-1.871-10.727-.022-.122-.06-.237-.1-.388l-3.006.51c-.25-1.42-.489-2.789-.735-4.2,1.009-.182,1.99-.359,3.033-.546m11.971,19.814a1.6,1.6,0,0,0,1.658-1.529,1.518,1.518,0,0,0-1.554-1.475,1.6,1.6,0,0,0-1.656,1.535,1.5,1.5,0,0,0,1.552,1.469" transform="translate(-102.021 -290.789)" fill="#ffdd92"></path><path id="Path_20" data-name="Path 20" d="M150.442,337.8a2.8,2.8,0,0,1-2.816-2.636c-.168-1.5-.478-2.975-.735-4.462q-1.906-10.972-3.818-21.949a6.4,6.4,0,0,1-.179-1.234,2.786,2.786,0,0,1,2.833-2.713,2.848,2.848,0,0,1,2.838,2.673c.153,1.455.452,2.9.7,4.337q1.9,10.935,3.8,21.864a2.36,2.36,0,0,0,.1.45,2.794,2.794,0,0,1-2.727,3.667m.073-4.222a1.581,1.581,0,0,0-1.623,1.557,1.524,1.524,0,0,0,1.581,1.447,1.605,1.605,0,0,0,1.627-1.569,1.5,1.5,0,0,0-1.585-1.435" transform="translate(-52.418 -301.171)" fill="#ffdd92"></path><path id="Path_21" data-name="Path 21" d="M160.507,360.714l-5.868,1.027c-1.3-7.5-2.6-14.969-3.909-22.481,1.9-.331,3.745-.655,5.629-.983l.624,3.519a3.36,3.36,0,0,0,.2-.348,6.26,6.26,0,0,1,2.052-2.747,3.119,3.119,0,0,0,.383-.382,2.816,2.816,0,0,1,3.042-.848,2.612,2.612,0,0,1,1.939,2.285,2.691,2.691,0,0,1-1.8,2.846,4.153,4.153,0,0,0-2.032,1.369,8.749,8.749,0,0,0-2.194,4.668,5.884,5.884,0,0,0,.173,1.775c.56,3.275,1.136,6.545,1.7,9.815.027.149.04.3.062.484m1.319-22.117a1.582,1.582,0,0,0-1.645,1.535,1.506,1.506,0,0,0,1.558,1.466,1.612,1.612,0,0,0,1.651-1.542,1.505,1.505,0,0,0-1.565-1.46" transform="translate(-42.907 -261.533)" fill="#ffdd92"></path><path id="Path_22" data-name="Path 22" d="M178.153,341.621c-1.306-7.508-2.605-14.967-3.914-22.481l5.206-.912c.153.863.3,1.695.447,2.527q1.7,9.781,3.4,19.553c.06.337-.02.426-.345.481-1.578.257-3.152.544-4.8.832" transform="translate(-14.375 -284.811)" fill="#ffdd92"></path><path id="Path_23" data-name="Path 23" d="M176.68,321.019a2.742,2.742,0,0,1-2.791-2.729,2.837,2.837,0,0,1,2.887-2.76,2.768,2.768,0,0,1,2.8,2.733,2.855,2.855,0,0,1-2.9,2.755m.009-1.234a1.594,1.594,0,0,0,1.66-1.524,1.515,1.515,0,0,0-1.554-1.478,1.592,1.592,0,0,0-1.654,1.531,1.489,1.489,0,0,0,1.547,1.471" transform="translate(-14.8 -288.099)" fill="#ffdd92"></path></g></svg> 